<svg width="14" height="16" viewBox="0 0 14 16" fill="none" xmlns="http://www.w3.org/2000/svg">
<path d="M2.58921 12.102C2.58921 12.5198 2.93748 12.8609 3.36598 12.8609H4.25397V15.0108C4.25397 15.5554 4.7007 16 5.24954 16C5.80021 16 6.24511 15.5572 6.24511 15.0108V12.8591H7.79499V15.009C7.79499 15.5536 8.24173 15.9982 8.79057 15.9982C9.34123 15.9982 9.78614 15.5554 9.78614 15.009V12.8591H10.6741C11.1026 12.8591 11.4509 12.518 11.4509 12.1002V5.04334H2.58921V12.102ZM9.10054 1.38636L9.91924 0.225702C9.96665 0.157848 9.95571 0.0667805 9.89189 0.0221396C9.82808 -0.0207156 9.73691 0.000712129 9.6895 0.0685663L8.8398 1.27566C8.28002 1.05959 7.65642 0.939956 7.00182 0.939956C6.34722 0.939956 5.72362 1.05959 5.16384 1.27566L4.31414 0.0703519C4.26673 0.00249774 4.17556 -0.0207155 4.11175 0.0239254C4.04793 0.0667806 4.03699 0.156062 4.08439 0.227488L4.9031 1.38815C3.6012 1.98098 2.6895 3.10415 2.5728 4.41659H11.4345C11.3141 3.10236 10.4006 1.9792 9.10054 1.38636ZM5.13102 3.21664C5.03401 3.21664 4.93918 3.18847 4.85852 3.13569C4.77786 3.08291 4.71499 3.00789 4.67787 2.92012C4.64074 2.83235 4.63103 2.73577 4.64995 2.6426C4.66888 2.54942 4.71559 2.46383 4.78419 2.39666C4.85279 2.32948 4.94019 2.28373 5.03533 2.2652C5.13048 2.24666 5.2291 2.25618 5.31872 2.29253C5.40835 2.32889 5.48495 2.39045 5.53885 2.46944C5.59275 2.54843 5.62151 2.6413 5.62151 2.7363C5.62118 2.8636 5.56939 2.98558 5.47748 3.07559C5.38557 3.1656 5.261 3.21631 5.13102 3.21664ZM8.93097 3.21664C8.83396 3.21664 8.73913 3.18847 8.65846 3.13569C8.5778 3.08291 8.51494 3.00789 8.47781 2.92012C8.44069 2.83235 8.43097 2.73577 8.4499 2.6426C8.46883 2.54942 8.51554 2.46383 8.58414 2.39666C8.65273 2.32948 8.74013 2.28373 8.83528 2.2652C8.93042 2.24666 9.02905 2.25618 9.11867 2.29253C9.2083 2.32889 9.2849 2.39045 9.3388 2.46944C9.39269 2.54843 9.42146 2.6413 9.42146 2.7363C9.42112 2.8636 9.36934 2.98558 9.27743 3.07559C9.18551 3.1656 9.06095 3.21631 8.93097 3.21664ZM13.0044 5.01477C12.4538 5.01477 12.0089 5.45761 12.0089 6.00402V9.86813C12.0089 10.4127 12.4556 10.8574 13.0044 10.8574C13.5551 10.8574 14 10.4145 14 9.86813V6.00223C14.0018 5.45583 13.5569 5.01477 13.0044 5.01477ZM0.995571 5.01477C0.444907 5.01477 0 5.45761 0 6.00402V9.86813C0 10.4127 0.446731 10.8574 0.995571 10.8574C1.54624 10.8574 1.99114 10.4145 1.99114 9.86813V6.00223C1.99114 5.45583 1.54441 5.01477 0.995571 5.01477Z" fill="#16C784"/>
</svg>
