<svg width="20" height="24" viewBox="0 0 20 24" fill="none" xmlns="http://www.w3.org/2000/svg">
<path d="M17.6268 7.16029C17.7469 7.28032 17.9072 7.34512 18.0783 7.34512C18.2493 7.34512 18.4097 7.28032 18.5297 7.16029C18.6498 7.04025 18.7146 6.87987 18.7146 6.70883C18.7146 6.53781 18.6498 6.3774 18.5297 6.25737L16.8249 4.5525C16.7048 4.43247 16.5445 4.36768 16.3734 4.36768C16.2024 4.36768 16.042 4.43247 15.922 4.5525C15.6745 4.8 15.6745 5.2047 15.922 5.45221L17.6268 7.16029Z" fill="white"/>
<path d="M7.57915 1.32778H11.6837C12.0512 1.32778 12.3476 1.02822 12.3476 0.66389C12.3476 0.299558 12.048 0 11.6837 0H7.57698C7.20944 0 6.91309 0.299558 6.91309 0.66389C6.91309 1.02931 7.2127 1.32778 7.57915 1.32778Z" fill="white"/>
<path d="M9.02979 1.79626H10.2397V3.34923H9.02979V1.79626Z" fill="white"/>
<path d="M1.63853 7.16037L3.34339 5.45551C3.59089 5.20801 3.59089 4.80331 3.34339 4.5558C3.22336 4.43577 3.06298 4.37097 2.89193 4.37097C2.72091 4.37097 2.56051 4.43577 2.44048 4.5558L0.73561 6.26067C0.615577 6.3807 0.550781 6.54108 0.550781 6.71212C0.550781 6.88317 0.615577 7.04355 0.73561 7.16358C0.985234 7.4079 1.39104 7.40787 1.63853 7.16037Z" fill="white"/>
<path d="M9.39894 13.5842V5.95959C5.3741 6.08494 2.13867 9.3938 2.13867 13.4483C2.13867 17.5813 5.49946 20.9424 9.6328 20.9424C12.317 20.9424 14.6774 19.5233 16.0019 17.3934L9.39894 13.5842Z" fill="white"/>
<path d="M9.63231 3.81665C4.32124 3.81665 0 8.13789 0 13.449C0 18.76 4.32124 23.0813 9.63231 23.0813C14.9434 23.0813 19.2646 18.76 19.2646 13.449C19.2646 8.1368 14.9434 3.81665 9.63231 3.81665ZM9.63231 21.6003C5.13703 21.6003 1.48284 17.9432 1.48284 13.4509C1.48284 8.95559 5.14003 5.30139 9.63231 5.30139C14.1276 5.30139 17.7818 8.95858 17.7818 13.4509C17.7818 17.9432 14.1276 21.6003 9.63231 21.6003Z" fill="white"/>
</svg>
