<svg width="15" height="15" viewBox="0 0 15 15" fill="none" xmlns="http://www.w3.org/2000/svg">
<path fill-rule="evenodd" clip-rule="evenodd" d="M7.5 0C11.6423 0 15 3.35838 15 7.5C15 11.6423 11.6416 15 7.5 15C3.35773 15 0 11.6423 0 7.5C0 3.35773 3.35773 0 7.5 0ZM10.0019 8.42517L7.96861 7.23366V3.20322C7.96861 2.58584 7.03079 2.58584 7.03079 3.20322L7.03142 7.49995H7.03333C7.03333 7.66018 7.11599 7.81595 7.26414 7.90306L9.53019 9.23128C10.0598 9.54219 10.5322 8.73671 10.0019 8.42517ZM12.1408 2.85934C9.57789 0.296399 5.42227 0.296399 2.85934 2.85934C0.2964 5.42227 0.2964 9.57789 2.85934 12.1408C5.42227 14.7038 9.57789 14.7038 12.1408 12.1408C14.7038 9.57789 14.7038 5.42227 12.1408 2.85934Z" fill="white"/>
</svg>
