<svg width="25" height="23" viewBox="0 0 25 23" fill="none" xmlns="http://www.w3.org/2000/svg">
<path d="M1.19092 22.1405C0.969911 22.1405 0.768992 22.0844 0.588164 21.972C0.407337 21.8597 0.266693 21.7109 0.166234 21.5255C0.0657742 21.3402 0.0107224 21.1401 0.00107823 20.9253C-0.0085659 20.7104 0.0464859 20.5005 0.166234 20.2955L11.3173 0.615015C11.4378 0.41001 11.5937 0.256256 11.785 0.153754C11.9763 0.0512513 12.172 0 12.3721 0C12.5722 0 12.7683 0.0512513 12.9604 0.153754C13.1525 0.256256 13.308 0.41001 13.4269 0.615015L24.5779 20.2955C24.6985 20.5005 24.7539 20.7108 24.7443 20.9265C24.7346 21.1422 24.6792 21.3418 24.5779 21.5255C24.4767 21.7092 24.336 21.8581 24.156 21.972C23.976 22.086 23.7751 22.1422 23.5532 22.1405H1.19092ZM13.2316 18.0974C13.4623 17.8613 13.5776 17.5689 13.5776 17.2204C13.5776 16.8719 13.4619 16.58 13.2304 16.3446C12.9989 16.1093 12.7128 15.9912 12.3721 15.9904C12.0313 15.9896 11.7452 16.1077 11.5138 16.3446C11.2823 16.5816 11.1666 16.8736 11.1666 17.2204C11.1666 17.5673 11.2823 17.8596 11.5138 18.0974C11.7452 18.3352 12.0313 18.4529 12.3721 18.4505C12.7128 18.448 12.9994 18.3311 13.2316 18.0974ZM13.2316 14.4061C13.4623 14.1708 13.5776 13.8788 13.5776 13.5303V9.84024C13.5776 9.49173 13.4619 9.19981 13.2304 8.96446C12.9989 8.72912 12.7128 8.61103 12.3721 8.61021C12.0313 8.60939 11.7452 8.72748 11.5138 8.96446C11.2823 9.20145 11.1666 9.49337 11.1666 9.84024V13.5303C11.1666 13.8788 11.2823 14.1712 11.5138 14.4073C11.7452 14.6435 12.0313 14.7612 12.3721 14.7604C12.7128 14.7595 12.9994 14.6415 13.2316 14.4061Z" fill="#F59E09"/>
</svg>
