<svg width="30" height="30" viewBox="0 0 30 30" fill="none" xmlns="http://www.w3.org/2000/svg">
<rect width="29.9" height="29.9" rx="14.95" fill="#0EB982"/>
<path d="M19.6099 12.025V10.075C19.6099 7.345 17.5595 5.20001 14.95 5.20001C12.3404 5.20001 10.2901 7.345 10.2901 10.075V12.025C8.70571 12.025 7.49414 13.2925 7.49414 14.9499V21.7749C7.49414 23.4324 8.70571 24.6999 10.2901 24.6999H19.6099C21.1942 24.6999 22.4058 23.4324 22.4058 21.7749V14.9499C22.4058 13.2925 21.1942 12.025 19.6099 12.025ZM12.154 10.075C12.154 8.41749 13.3656 7.15 14.95 7.15C16.5343 7.15 17.7459 8.41749 17.7459 10.075V12.025H12.154V10.075ZM15.9752 18.3624L15.882 18.4599V19.8249C15.882 20.4099 15.5092 20.7999 14.95 20.7999C14.3908 20.7999 14.018 20.4099 14.018 19.8249V18.4599C13.4588 17.8749 13.3656 16.9974 13.9248 16.4124C14.484 15.8274 15.3228 15.7299 15.882 16.3149C16.4411 16.8024 16.5343 17.7774 15.9752 18.3624Z" fill="white"/>
</svg>
