<svg width="30" height="30" viewBox="0 0 30 30" fill="none" xmlns="http://www.w3.org/2000/svg">
<rect width="29.8999" height="29.8999" rx="14.95" fill="#0EB982"/>
<path d="M23.0624 10.5698C23.1824 10.6899 23.3428 10.7547 23.5138 10.7547C23.6849 10.7547 23.8453 10.6899 23.9653 10.5698C24.0853 10.4498 24.1501 10.2894 24.1501 10.1184C24.1501 9.94736 24.0853 9.78695 23.9653 9.66692L22.2604 7.96205C22.1404 7.84202 21.98 7.77722 21.809 7.77722C21.6379 7.77722 21.4775 7.84202 21.3575 7.96205C21.11 8.20955 21.11 8.61425 21.3575 8.86176L23.0624 10.5698Z" fill="white"/>
<path d="M13.0147 4.73733H17.1192C17.4868 4.73733 17.7831 4.43777 17.7831 4.07344C17.7831 3.7091 17.4835 3.40955 17.1192 3.40955H13.0125C12.645 3.40955 12.3486 3.7091 12.3486 4.07344C12.3486 4.43886 12.6482 4.73733 13.0147 4.73733Z" fill="white"/>
<path d="M14.4658 5.20581H15.6757V6.75878H14.4658V5.20581Z" fill="white"/>
<path d="M7.07407 10.5699L8.77894 8.86499C9.02644 8.61749 9.02644 8.2128 8.77894 7.96529C8.65891 7.84525 8.49853 7.78046 8.32748 7.78046C8.15646 7.78046 7.99605 7.84525 7.87602 7.96529L6.17116 9.67015C6.05112 9.79018 5.98633 9.95057 5.98633 10.1216C5.98633 10.2927 6.05112 10.453 6.17116 10.5731C6.42078 10.8174 6.82659 10.8174 7.07407 10.5699Z" fill="white"/>
<path d="M14.8345 16.9937V9.36908C10.8096 9.49442 7.57422 12.8033 7.57422 16.8578C7.57422 20.9908 10.935 24.3519 15.0683 24.3519C17.7526 24.3519 20.1129 22.9327 21.4375 20.8029L14.8345 16.9937Z" fill="white"/>
<path d="M15.0679 7.2262C9.75679 7.2262 5.43555 11.5474 5.43555 16.8585C5.43555 22.1696 9.75679 26.4908 15.0679 26.4908C20.3789 26.4908 24.7002 22.1696 24.7002 16.8585C24.7002 11.5464 20.3789 7.2262 15.0679 7.2262ZM15.0679 25.0099C10.5726 25.0099 6.91838 21.3527 6.91838 16.8604C6.91838 12.3651 10.5756 8.71094 15.0679 8.71094C19.5631 8.71094 23.2173 12.3681 23.2173 16.8604C23.2173 21.3527 19.5631 25.0099 15.0679 25.0099Z" fill="white"/>
</svg>
