<svg width="34" height="34" viewBox="0 0 34 34" fill="none" xmlns="http://www.w3.org/2000/svg">
<rect width="34" height="34" rx="17" fill="url(#paint0_linear_2465_9955)"/>
<path fill-rule="evenodd" clip-rule="evenodd" d="M19.2433 17.3249L22.2075 16.5181C22.5598 16.4207 22.8306 16.2098 23.0151 15.8899L24.3692 13.5454L16.507 9.01329L15.1525 11.3526C14.9679 11.672 14.9247 12.0132 15.0169 12.3704L15.7972 15.3378C16.0029 16.1173 15.5367 16.9242 14.7569 17.1356L11.7927 17.9422C11.4399 18.0395 11.1696 18.2509 10.9851 18.5703L9.63054 20.9148L17.4932 25.4472L18.8473 23.1078C19.0323 22.7885 19.0756 22.447 18.9833 22.0898L18.203 19.1226C17.9971 18.3424 18.463 17.5358 19.2433 17.3249ZM9.14836 9.517C10.0916 8.5585 11.2126 7.77331 12.4537 7.20987C13.8407 6.5766 15.3798 6.22998 17 6.22998C18.4689 6.22998 19.8719 6.51711 21.1509 7.03656C22.4838 7.57812 23.687 8.37437 24.6944 9.36532C24.8029 9.46783 24.8029 9.63598 24.6996 9.74415C24.5967 9.84715 24.429 9.85256 24.32 9.74931C23.3615 8.80704 22.2178 8.04914 20.9499 7.5351C19.7312 7.03656 18.3978 6.76639 17 6.76639C15.4558 6.76639 13.9925 7.09678 12.6761 7.6976C11.495 8.23351 10.4274 8.98084 9.52795 9.89607H10.9799C11.126 9.89607 11.2451 10.0148 11.2451 10.1667C11.2451 10.313 11.126 10.432 10.9799 10.432H8.88316C8.73138 10.432 8.61206 10.313 8.61206 10.1667V8.07151C8.61206 7.91983 8.73113 7.80036 8.88316 7.80036C9.02929 7.80036 9.14836 7.91958 9.14836 8.07151V9.517ZM25.3879 26.3889C25.3879 26.5406 25.2693 26.6599 25.1173 26.6599C24.9707 26.6599 24.8516 26.5409 24.8516 26.3889V24.9435C23.9035 25.9017 22.7869 26.6871 21.5462 27.2501C20.159 27.8836 18.62 28.23 17 28.23C15.5316 28.23 14.1286 27.9431 12.8496 27.4232C11.5167 26.8764 10.3135 26.0861 9.30605 25.0951C9.19756 24.9921 9.19756 24.8242 9.3004 24.7156C9.40323 24.6128 9.5715 24.6076 9.6795 24.7104C10.6384 25.6527 11.7821 26.4108 13.0501 26.9254C14.269 27.4232 15.6019 27.6941 17.0002 27.6941C18.5444 27.6941 20.0077 27.3639 21.3241 26.7629C22.5057 26.2264 23.5733 25.4796 24.4723 24.5644H23.0203C22.8737 24.5644 22.7551 24.4454 22.7551 24.2937C22.7551 24.147 22.8737 24.028 23.0203 24.028H25.1175C25.2693 24.028 25.3882 24.147 25.3882 24.2937L25.3879 26.3889ZM25.6371 11.3143C25.5559 11.1899 25.5886 11.0271 25.7082 10.9409C25.8327 10.8595 26.0005 10.8919 26.0816 11.0112C26.2605 11.2713 26.4285 11.5368 26.5852 11.8177C26.7375 12.0889 26.8836 12.3701 27.0133 12.657C27.0787 12.7925 27.0189 12.9498 26.8836 13.0147C26.7481 13.0739 26.5911 13.0147 26.5314 12.8792C26.4064 12.6081 26.2657 12.3433 26.1195 12.0778C25.9737 11.8177 25.8105 11.5633 25.6371 11.3143ZM27.1004 14.4496C27.0625 14.3031 27.1437 14.1571 27.2849 14.119C27.431 14.0811 27.5774 14.1625 27.615 14.3085C27.6915 14.5794 27.7557 14.8498 27.8047 15.1261C27.8596 15.3971 27.9021 15.6731 27.9348 15.9546C27.9511 16.1006 27.8482 16.2363 27.7019 16.2523C27.5501 16.2685 27.4202 16.1604 27.4039 16.0141C27.3712 15.7486 27.3333 15.4833 27.2795 15.2235C27.2305 14.9585 27.1651 14.6986 27.1004 14.4496ZM27.4689 17.5847C27.4741 17.433 27.5939 17.3195 27.7452 17.3246C27.8918 17.3298 28.0057 17.4547 27.9998 17.6007C27.9946 17.8824 27.973 18.1585 27.9459 18.4294C27.9132 18.7001 27.8753 18.9761 27.8204 19.2465C27.7941 19.3931 27.6586 19.4904 27.5119 19.4634C27.3658 19.4363 27.2689 19.2955 27.2952 19.1492C27.3442 18.895 27.3818 18.6349 27.4091 18.3697C27.4418 18.1101 27.4583 17.8448 27.4689 17.5847ZM26.8782 20.7144C26.9272 20.5789 27.0785 20.5035 27.2194 20.5522C27.3604 20.6008 27.4308 20.7577 27.3818 20.8931C27.2846 21.1748 27.171 21.4563 27.046 21.7326C26.9215 22.0144 26.786 22.2848 26.6401 22.5392C26.5695 22.6693 26.4066 22.7184 26.2767 22.6474C26.1466 22.5768 26.1033 22.4143 26.1734 22.2845C26.3146 22.0303 26.4391 21.7757 26.5582 21.5156C26.6726 21.2562 26.7808 20.9905 26.8782 20.7144ZM8.35744 23.1454C8.44453 23.2701 8.41132 23.4323 8.28733 23.5191C8.16777 23.6005 7.99999 23.568 7.91832 23.449C7.73947 23.1887 7.57144 22.9234 7.41474 22.6422C7.26295 22.3713 7.11633 22.0898 6.98619 21.8027C6.92124 21.6672 6.98102 21.5107 7.11633 21.4458C7.25188 21.3858 7.40883 21.4458 7.46861 21.581C7.59309 21.8516 7.7343 22.1171 7.88092 22.3824C8.02681 22.6422 8.18942 22.8964 8.35744 23.1454ZM6.89959 20.0108C6.93748 20.1566 6.8563 20.3029 6.71558 20.341C6.56896 20.3786 6.42307 20.2977 6.38494 20.1514C6.30893 19.881 6.24423 19.6104 6.19527 19.3338C6.14139 19.0631 6.09785 18.7871 6.06562 18.5056C6.04939 18.3591 6.15222 18.2239 6.2981 18.2079C6.45038 18.1917 6.58003 18.2998 6.59602 18.4461C6.62874 18.7114 6.66662 18.9766 6.72099 19.2365C6.76995 19.5012 6.82948 19.7616 6.89959 20.0108ZM6.53107 16.8755C6.52591 17.0218 6.40659 17.1407 6.2553 17.1356C6.10868 17.1299 5.99477 17.0055 6.00019 16.8595C6.00535 16.5778 6.027 16.3015 6.05455 16.0311C6.08727 15.7601 6.12467 15.4838 6.17362 15.2134C6.20093 15.0674 6.34189 14.9696 6.48777 14.9966C6.63366 15.0236 6.73132 15.1647 6.70451 15.3108C6.65604 15.565 6.61791 15.8253 6.5911 16.0903C6.55863 16.3501 6.54214 16.6154 6.53107 16.8755ZM7.12223 13.7456C7.07377 13.881 6.92149 13.957 6.78053 13.9081C6.63981 13.8594 6.5692 13.702 6.61816 13.5666C6.71558 13.2851 6.82948 13.0039 6.95347 12.7273C7.07844 12.4458 7.21449 12.1754 7.35471 11.9151C7.43122 11.7907 7.59309 11.742 7.72372 11.8123C7.85337 11.8824 7.89667 12.0454 7.82656 12.1754C7.68535 12.4296 7.56037 12.6841 7.4418 12.9444C7.3279 13.2042 7.21965 13.4695 7.12223 13.7456ZM11.5816 19.9132L11.2616 20.4759L17.0595 23.822L17.813 22.5063C17.8399 22.463 17.8458 22.4468 17.8293 22.3927L17.1791 19.913L11.5816 19.9132ZM16.7242 14.1625C17.2546 16.1822 16.9294 16.6478 17.0871 17.9419C17.3582 17.1078 18.0293 16.4205 18.9292 16.1714L21.8933 15.3649C21.9418 15.354 21.9583 15.343 21.9856 15.2941L22.6353 14.1625H16.7242Z" fill="white"/>
<defs>
<linearGradient id="paint0_linear_2465_9955" x1="17" y1="0" x2="17" y2="34" gradientUnits="userSpaceOnUse">
<stop stop-color="#16C784"/>
<stop offset="1" stop-color="#0B6140"/>
</linearGradient>
</defs>
</svg>
